<svg data-v-d3f97b9e="" xmlns="http://www.w3.org/2000/svg" viewBox="0 0 357 90"><!----><linearGradient data-v-d3f97b9e="" gradientTransform="rotate(25)" id="857fe91a-fe19-46eb-89f9-d7e492d5a716" x1="0%" y1="0%" x2="100%" y2="0%"><stop data-v-d3f97b9e="" offset="0%" style="stop-color: rgb(73, 36, 126); stop-opacity: 1;"></stop><stop data-v-d3f97b9e="" offset="100%" style="stop-color: rgb(170, 73, 199); stop-opacity: 1;"></stop></linearGradient><!----><g data-v-d3f97b9e="" id="3160eac5-23e0-48d7-ba8a-df1323bbd545" fill="#ffffff" transform="matrix(4.559270569581267,0,0,4.559270569581267,111.00698153992018,-12.629179867616081)"><path d="M11.73 12.07L12.53 12.24L12.53 12.85L9.00 12.85L9.00 12.24L9.86 12.05L9.86 12.05Q9.87 11.55 9.87 10.96L9.87 10.96L9.87 10.96Q9.87 10.37 9.87 9.91L9.87 9.91L9.87 8.57L9.87 8.57Q9.87 7.03 9.02 7.03L9.02 7.03L9.02 7.03Q8.65 7.03 8.25 7.27L8.25 7.27L8.25 7.27Q7.84 7.50 7.50 7.81L7.50 7.81L7.50 7.81Q7.52 7.94 7.53 8.07L7.53 8.07L7.53 8.07Q7.53 8.20 7.53 8.34L7.53 8.34L7.53 9.91L7.53 9.91Q7.53 10.37 7.53 10.96L7.53 10.96L7.53 10.96Q7.53 11.55 7.55 12.07L7.55 12.07L8.34 12.24L8.34 12.85L4.82 12.85L4.82 12.24L5.67 12.05L5.67 12.05Q5.68 11.55 5.68 10.96L5.68 10.96L5.68 10.96Q5.68 10.37 5.68 9.91L5.68 9.91L5.68 8.57L5.68 8.57Q5.68 7.03 4.82 7.03L4.82 7.03L4.82 7.03Q4.45 7.03 4.05 7.27L4.05 7.27L4.05 7.27Q3.65 7.50 3.30 7.83L3.30 7.83L3.30 9.91L3.30 9.91Q3.30 10.36 3.30 10.96L3.30 10.96L3.30 10.96Q3.30 11.55 3.32 12.08L3.32 12.08L4.09 12.24L4.09 12.85L0.56 12.85L0.56 12.24L1.41 12.05L1.41 12.05Q1.43 11.54 1.43 10.95L1.43 10.95L1.43 10.95Q1.43 10.36 1.43 9.91L1.43 9.91L1.43 9.10L1.43 9.10Q1.43 8.81 1.43 8.60L1.43 8.60L1.43 8.60Q1.43 8.39 1.42 8.20L1.42 8.20L1.42 8.20Q1.41 8.01 1.41 7.83L1.41 7.83L1.41 7.83Q1.40 7.66 1.39 7.45L1.39 7.45L0.42 7.32L0.42 6.79L2.95 5.88L3.16 6.02L3.26 7.13L3.26 7.13Q3.79 6.47 4.28 6.17L4.28 6.17L4.28 6.17Q4.77 5.88 5.47 5.88L5.47 5.88L5.47 5.88Q7 5.88 7.39 7.17L7.39 7.17L7.39 7.17Q7.66 6.83 7.92 6.59L7.92 6.59L7.92 6.59Q8.18 6.34 8.45 6.18L8.45 6.18L8.45 6.18Q8.72 6.02 9.04 5.95L9.04 5.95L9.04 5.95Q9.35 5.88 9.74 5.88L9.74 5.88L9.74 5.88Q10.75 5.88 11.23 6.48L11.23 6.48L11.23 6.48Q11.72 7.07 11.72 8.34L11.72 8.34L11.72 9.91L11.72 9.91Q11.72 10.37 11.72 10.96L11.72 10.96L11.72 10.96Q11.72 11.55 11.73 12.07L11.73 12.07ZM19.82 6.13L19.82 6.75L18.93 6.90L16.67 13.03L16.67 13.03Q16.14 14.49 15.57 15.21L15.57 15.21L15.57 15.21Q14.99 15.93 14.08 15.93L14.08 15.93L14.08 15.93Q13.80 15.93 13.55 15.87L13.55 15.87L13.55 15.87Q13.29 15.81 13.09 15.68L13.09 15.68L13.09 15.68Q12.89 15.55 12.78 15.37L12.78 15.37L12.78 15.37Q12.66 15.19 12.66 14.95L12.66 14.95L12.66 14.95Q12.77 14.59 13.01 14.44L13.01 14.44L13.01 14.44Q13.24 14.29 13.59 14.29L13.59 14.29L13.59 14.29Q13.83 14.29 14.08 14.38L14.08 14.38L14.08 14.38Q14.32 14.46 14.60 14.71L14.60 14.71L14.84 14.92L14.84 14.92Q15.13 14.66 15.38 14.29L15.38 14.29L15.38 14.29Q15.62 13.93 15.85 13.41L15.85 13.41L13.22 6.92L12.42 6.75L12.42 6.13L16.24 6.13L16.24 6.75L15.26 6.94L16.73 10.96L18.16 6.92L17.26 6.75L17.26 6.13L19.82 6.13ZM23.42 8.54L23.90 8.71L23.90 8.71Q24.44 8.90 24.81 9.13L24.81 9.13L24.81 9.13Q25.17 9.37 25.38 9.63L25.38 9.63L25.38 9.63Q25.59 9.90 25.68 10.20L25.68 10.20L25.68 10.20Q25.76 10.50 25.76 10.84L25.76 10.84L25.76 10.84Q25.76 11.34 25.55 11.75L25.55 11.75L25.55 11.75Q25.34 12.15 24.95 12.45L24.95 12.45L24.95 12.45Q24.56 12.74 24.01 12.90L24.01 12.90L24.01 12.90Q23.46 13.06 22.78 13.06L22.78 13.06L22.78 13.06Q22.05 13.06 21.50 12.89L21.50 12.89L21.50 12.89Q20.94 12.73 20.36 12.39L20.36 12.39L20.36 10.78L21.43 10.78L21.62 12.00L21.62 12.00Q21.94 12.18 22.21 12.26L22.21 12.26L22.21 12.26Q22.48 12.33 22.78 12.33L22.78 12.33L22.78 12.33Q23.45 12.33 23.77 12.11L23.77 12.11L23.77 12.11Q24.08 11.89 24.08 11.42L24.08 11.42L24.08 11.42Q24.08 11.23 24.02 11.08L24.02 11.08L24.02 11.08Q23.95 10.93 23.80 10.81L23.80 10.81L23.80 10.81Q23.65 10.68 23.39 10.56L23.39 10.56L23.39 10.56Q23.13 10.43 22.72 10.28L22.72 10.28L22.08 10.02L22.08 10.02Q21.24 9.70 20.81 9.19L20.81 9.19L20.81 9.19Q20.38 8.68 20.38 7.94L20.38 7.94L20.38 7.94Q20.38 7.01 21.09 6.45L21.09 6.45L21.09 6.45Q21.80 5.88 23.24 5.88L23.24 5.88L23.24 5.88Q23.87 5.88 24.36 6.02L24.36 6.02L24.36 6.02Q24.85 6.16 25.37 6.41L25.37 6.41L25.28 7.95L24.22 7.95L24.01 6.79L24.01 6.79Q23.83 6.72 23.63 6.66L23.63 6.66L23.63 6.66Q23.44 6.61 23.16 6.61L23.16 6.61L23.16 6.61Q22.65 6.61 22.34 6.84L22.34 6.84L22.34 6.84Q22.04 7.07 22.04 7.48L22.04 7.48L22.04 7.48Q22.04 7.63 22.09 7.76L22.09 7.76L22.09 7.76Q22.15 7.90 22.30 8.02L22.30 8.02L22.30 8.02Q22.46 8.15 22.73 8.27L22.73 8.27L22.73 8.27Q23.00 8.40 23.42 8.54L23.42 8.54ZM30.81 11.52L31.22 12.00L31.22 12.00Q30.95 12.40 30.45 12.70L30.45 12.70L30.45 12.70Q29.95 12.99 29.19 12.99L29.19 12.99L29.19 12.99Q28.34 12.99 27.84 12.57L27.84 12.57L27.84 12.57Q27.34 12.15 27.34 11.27L27.34 11.27L27.34 11.27Q27.34 10.84 27.35 10.52L27.35 10.52L27.35 10.52Q27.36 10.21 27.36 9.80L27.36 9.80L27.36 7.03L26.42 7.03L26.42 6.26L27.52 6.12L27.92 4.17L29.26 4.17L29.26 6.13L30.86 6.13L30.86 7.03L29.26 7.03L29.26 10.88L29.26 10.88Q29.26 11.40 29.46 11.63L29.46 11.63L29.46 11.63Q29.67 11.86 29.99 11.86L29.99 11.86L29.99 11.86Q30.13 11.86 30.35 11.79L30.35 11.79L30.35 11.79Q30.56 11.73 30.81 11.52L30.81 11.52ZM35.64 11.61L35.64 9.24L35.64 9.24Q35.38 9.31 35.15 9.39L35.15 9.39L35.15 9.39Q34.92 9.46 34.75 9.53L34.75 9.53L34.75 9.53Q34.13 9.77 33.89 10.14L33.89 10.14L33.89 10.14Q33.66 10.50 33.66 10.95L33.66 10.95L33.66 10.95Q33.66 11.23 33.73 11.40L33.73 11.40L33.73 11.40Q33.81 11.56 33.92 11.68L33.92 11.68L33.92 11.68Q34.22 11.97 34.71 11.97L34.71 11.97L34.71 11.97Q34.93 11.97 35.14 11.89L35.14 11.89L35.14 11.89Q35.35 11.82 35.64 11.61L35.64 11.61ZM38.39 11.70L38.75 11.97L38.75 11.97Q38.47 12.54 38.12 12.77L38.12 12.77L38.12 12.77Q37.76 12.99 37.23 12.99L37.23 12.99L37.23 12.99Q36.65 12.99 36.27 12.77L36.27 12.77L36.27 12.77Q35.90 12.54 35.74 12.18L35.74 12.18L35.74 12.18Q35.27 12.61 34.83 12.84L34.83 12.84L34.83 12.84Q34.38 13.06 33.73 13.06L33.73 13.06L33.73 13.06Q32.89 13.06 32.36 12.63L32.36 12.63L32.36 12.63Q31.84 12.21 31.84 11.38L31.84 11.38L31.84 11.38Q31.84 11.06 31.94 10.75L31.94 10.75L31.94 10.75Q32.05 10.43 32.33 10.13L32.33 10.13L32.33 10.13Q32.62 9.83 33.12 9.55L33.12 9.55L33.12 9.55Q33.63 9.27 34.43 9.00L34.43 9.00L34.43 9.00Q34.66 8.92 34.99 8.83L34.99 8.83L34.99 8.83Q35.31 8.74 35.64 8.64L35.64 8.64L35.64 8.22L35.64 8.22Q35.64 7.34 35.38 6.96L35.38 6.96L35.38 6.96Q35.11 6.58 34.44 6.58L34.44 6.58L34.44 6.58Q34.33 6.58 34.22 6.59L34.22 6.59L34.22 6.59Q34.12 6.59 34.01 6.61L34.01 6.61L33.89 7.42L33.89 7.42Q33.82 7.97 33.56 8.23L33.56 8.23L33.56 8.23Q33.29 8.50 32.93 8.50L32.93 8.50L32.93 8.50Q32.61 8.50 32.38 8.30L32.38 8.30L32.38 8.30Q32.14 8.11 32.07 7.78L32.07 7.78L32.07 7.78Q32.17 6.96 32.96 6.42L32.96 6.42L32.96 6.42Q33.74 5.88 35.08 5.88L35.08 5.88L35.08 5.88Q35.74 5.88 36.21 6.03L36.21 6.03L36.21 6.03Q36.68 6.17 36.97 6.50L36.97 6.50L36.97 6.50Q37.27 6.83 37.41 7.37L37.41 7.37L37.41 7.37Q37.55 7.91 37.55 8.69L37.55 8.69L37.55 11.58L37.55 11.58Q37.55 11.80 37.63 11.94L37.63 11.94L37.63 11.94Q37.72 12.08 37.90 12.08L37.90 12.08L37.90 12.08Q38.04 12.08 38.12 12.00L38.12 12.00L38.12 12.00Q38.21 11.91 38.32 11.79L38.32 11.79L38.39 11.70ZM44.91 10.92L45.39 11.19L45.39 11.19Q45.14 12.10 44.37 12.58L44.37 12.58L44.37 12.58Q43.60 13.06 42.55 13.06L42.55 13.06L42.55 13.06Q41.78 13.06 41.15 12.82L41.15 12.82L41.15 12.82Q40.53 12.59 40.09 12.13L40.09 12.13L40.09 12.13Q39.65 11.68 39.41 11.01L39.41 11.01L39.41 11.01Q39.17 10.35 39.17 9.49L39.17 9.49L39.17 9.49Q39.17 8.65 39.46 7.98L39.46 7.98L39.46 7.98Q39.75 7.31 40.24 6.84L40.24 6.84L40.24 6.84Q40.73 6.37 41.38 6.13L41.38 6.13L41.38 6.13Q42.03 5.88 42.77 5.88L42.77 5.88L42.77 5.88Q43.33 5.88 43.81 6.03L43.81 6.03L43.81 6.03Q44.30 6.19 44.65 6.45L44.65 6.45L44.65 6.45Q45.00 6.71 45.20 7.07L45.20 7.07L45.20 7.07Q45.40 7.43 45.40 7.85L45.40 7.85L45.40 7.85Q45.25 8.53 44.58 8.53L44.58 8.53L44.58 8.53Q44.18 8.53 43.90 8.27L43.90 8.27L43.90 8.27Q43.62 8.01 43.60 7.38L43.60 7.38L43.55 6.64L43.55 6.64Q43.44 6.61 43.34 6.59L43.34 6.59L43.34 6.59Q43.23 6.58 43.12 6.58L43.12 6.58L43.12 6.58Q42.73 6.58 42.38 6.75L42.38 6.75L42.38 6.75Q42.03 6.93 41.77 7.27L41.77 7.27L41.77 7.27Q41.51 7.62 41.36 8.12L41.36 8.12L41.36 8.12Q41.20 8.62 41.20 9.28L41.20 9.28L41.20 9.28Q41.20 10.65 41.78 11.31L41.78 11.31L41.78 11.31Q42.35 11.97 43.23 11.97L43.23 11.97L43.23 11.97Q43.79 11.97 44.19 11.71L44.19 11.71L44.19 11.71Q44.59 11.45 44.91 10.92L44.91 10.92ZM52.85 12.00L53.87 12.24L53.87 12.85L51.24 12.85L49.39 9.58L48.72 10.22L48.72 10.22Q48.72 10.64 48.73 11.13L48.73 11.13L48.73 11.13Q48.73 11.62 48.73 12.07L48.73 12.07L49.59 12.24L49.59 12.85L46.00 12.85L46.00 12.24L46.86 12.07L46.86 12.07Q46.87 11.54 46.87 10.95L46.87 10.95L46.87 10.95Q46.87 10.36 46.87 9.91L46.87 9.91L46.87 4.10L45.82 3.96L45.82 3.40L48.58 2.77L48.78 2.88L48.72 4.87L48.72 9.37L51.24 6.90L50.20 6.75L50.20 6.13L53.42 6.13L53.42 6.75L52.15 6.92L50.71 8.30L52.85 12.00Z"></path></g><!----><g data-v-d3f97b9e="" id="0fa68faf-2643-43c0-af03-b5c919514548" transform="matrix(1.2693936212660621,0,0,1.2693936212660621,-10.99323764898839,-12.909451161056232)" stroke="none" fill="#ffffff"><path d="M71.5 18.9c.3-.7.5-1.5.5-2.3 0-3.2-2.6-5.8-5.8-5.8s-5.8 2.6-5.8 5.8 2.6 5.8 5.8 5.8c1 0 2-.3 2.8-.7 6.3 6.2 9.9 14.6 9.9 23.5C78.9 63.3 64.2 78 46 78S13.2 63.3 13.2 45.1c0-6.9 2.2-13.6 6.2-19.2.6.2 1.3.4 2.1.4 3.2 0 5.8-2.6 5.8-5.8s-2.6-5.8-5.8-5.8-5.8 2.6-5.8 5.8c0 1.1.3 2.1.8 3-4.6 6.2-7.1 13.8-7.1 21.6 0 20.2 16.4 36.6 36.6 36.6s36.6-16.4 36.6-36.6c.1-9.9-4-19.3-11.1-26.2z"></path><path d="M27 35c0 1.7.7 3.2 1.9 4.3-.6 1.9-1 3.8-1 5.8 0 10 8.1 18.1 18.1 18.1s18.1-8.1 18.1-18.1c0-2.8-.6-5.5-1.9-8 .7-1 1.1-2.2 1.1-3.4 0-3.2-2.6-5.8-5.8-5.8s-5.8 2.6-5.8 5.8c0 3.2 2.6 5.8 5.8 5.8.5 0 1-.1 1.5-.2.8 1.8 1.2 3.8 1.2 5.9 0 7.9-6.4 14.3-14.3 14.3s-14.3-6.4-14.3-14.3c0-1.5.2-3 .7-4.4h.4c3.2 0 5.8-2.6 5.8-5.8 0-3.2-2.6-5.8-5.8-5.8S27 31.8 27 35z"></path><path d="M27.3 52c0-3.2-2.6-5.8-5.8-5.8s-5.8 2.6-5.8 5.8c0 3.2 2.6 5.8 5.8 5.8h.5c4.7 8.9 13.9 14.6 24.1 14.6 15 0 27.1-12.2 27.1-27.1 0-7.3-2.8-14.1-8-19.2-4.7-4.7-10.9-7.5-17.5-7.9-.6-2.6-2.9-4.5-5.7-4.5-3.2 0-5.8 2.6-5.8 5.8s2.6 5.8 5.8 5.8c2.3 0 4.3-1.4 5.3-3.4 5.8.3 11.1 2.7 15.2 6.8 4.4 4.4 6.9 10.3 6.9 16.5C69.4 58.1 59 68.5 46 68.5c-8.7 0-16.6-4.8-20.6-12.4 1.1-1 1.9-2.5 1.9-4.1z"></path></g><!----><g data-v-d3f97b9e="" id="1114f3ee-ce6e-40a0-bcab-40cef272e125" fill="#ffffff" transform="matrix(0.9036544329940246,0,0,0.9036544329940246,112.28931714762763,56.575148836145836)"><path d="M7.81 9.52C7.39 9.11 6.79 8.86 6.01 8.75C6.33 8.67 6.61 8.55 6.86 8.40C7.11 8.25 7.34 8.08 7.50 7.87C7.67 7.66 7.81 7.43 7.90 7.20C7.98 6.96 8.04 6.71 8.04 6.44C8.04 6.05 7.95 5.68 7.83 5.38C7.70 5.07 7.49 4.80 7.22 4.58C6.96 4.37 6.62 4.20 6.20 4.09C5.78 3.98 5.29 3.92 4.73 3.92L1.89 3.92L0.70 3.92L0.70 4.19C0.70 4.34 0.80 4.42 0.98 4.44L1.12 4.44C1.19 4.44 1.29 4.45 1.43 4.45C1.57 4.45 1.72 4.47 1.89 4.47L1.89 13.26C1.72 13.26 1.57 13.27 1.43 13.27C1.29 13.27 1.19 13.29 1.12 13.29L0.98 13.29C0.80 13.30 0.71 13.38 0.71 13.54L0.71 13.82L1.89 13.82L5.10 13.82C5.63 13.82 6.09 13.76 6.51 13.64C6.93 13.51 7.28 13.34 7.56 13.10C7.84 12.87 8.06 12.59 8.22 12.25C8.37 11.91 8.44 11.54 8.44 11.12C8.44 10.46 8.23 9.93 7.81 9.52ZM2.60 4.48L4.73 4.48C5.61 4.48 6.27 4.66 6.69 5.00C7.11 5.35 7.32 5.84 7.32 6.51C7.32 6.76 7.28 7.03 7.18 7.27C7.08 7.50 6.93 7.71 6.72 7.91C6.51 8.11 6.24 8.26 5.92 8.37C5.60 8.48 5.21 8.55 4.75 8.55L2.60 8.55ZM7.06 12.68C6.61 13.06 5.95 13.24 5.08 13.24L2.60 13.24L2.60 9.07L5.10 9.07C5.52 9.07 5.88 9.11 6.20 9.21C6.52 9.31 6.80 9.45 7.03 9.62C7.25 9.80 7.42 10.00 7.55 10.25C7.66 10.50 7.73 10.79 7.73 11.10C7.73 11.79 7.50 12.31 7.06 12.68ZM24.63 13.29L24.53 13.29L24.35 13.29C24.26 13.29 24.18 13.27 24.09 13.27L21.13 9.53C21.04 9.42 20.93 9.32 20.82 9.25C21.25 9.21 21.64 9.11 21.99 8.96C22.34 8.81 22.62 8.61 22.88 8.37C23.11 8.13 23.31 7.85 23.44 7.55C23.56 7.24 23.63 6.89 23.63 6.51C23.63 5.66 23.35 5.03 22.79 4.58C22.23 4.14 21.38 3.92 20.23 3.92L17.82 3.92L16.65 3.92L16.65 4.19C16.65 4.34 16.73 4.42 16.91 4.44L17.05 4.44C17.12 4.44 17.22 4.45 17.36 4.45C17.50 4.45 17.65 4.47 17.82 4.47L17.82 13.26C17.65 13.26 17.50 13.27 17.36 13.27C17.22 13.27 17.12 13.29 17.05 13.29L16.91 13.29C16.73 13.30 16.63 13.38 16.63 13.54L16.63 13.82L17.82 13.82L18.54 13.82L19.71 13.82L19.71 13.54C19.71 13.38 19.61 13.30 19.43 13.29L19.29 13.29C19.22 13.29 19.12 13.27 18.98 13.27C18.84 13.27 18.70 13.26 18.54 13.26L18.54 9.34L19.71 9.34C19.91 9.34 20.05 9.35 20.13 9.39C20.22 9.44 20.30 9.52 20.38 9.62L23.56 13.64C23.62 13.71 23.66 13.75 23.72 13.78C23.77 13.80 23.84 13.82 23.91 13.82L23.98 13.82L24.53 13.82L24.89 13.82L24.89 13.54C24.89 13.38 24.81 13.30 24.63 13.29ZM20.13 8.81L18.54 8.81L18.54 4.48L20.23 4.48C21.11 4.48 21.78 4.66 22.25 5.00C22.71 5.33 22.93 5.87 22.93 6.57C22.93 6.92 22.88 7.21 22.75 7.49C22.62 7.77 22.43 7.99 22.19 8.19C21.95 8.39 21.66 8.55 21.31 8.65C20.96 8.75 20.57 8.81 20.13 8.81ZM42.39 13.22L41.93 13.17L38.15 3.91L37.44 3.91L33.64 13.17L33.19 13.22C33.01 13.23 32.93 13.33 32.93 13.50L32.93 13.82L33.38 13.82L33.67 13.82L33.92 13.82L34.02 13.82L35.34 13.82L35.34 13.50C35.34 13.31 35.22 13.23 35.01 13.22C35 13.22 34.97 13.20 34.93 13.20C34.89 13.20 34.83 13.19 34.73 13.19C34.64 13.19 34.51 13.19 34.37 13.17L35.35 10.75L35.42 10.57L40.15 10.57L40.22 10.75L41.20 13.17C41.06 13.19 40.95 13.19 40.85 13.19C40.75 13.19 40.68 13.20 40.64 13.20C40.60 13.20 40.57 13.22 40.56 13.22C40.35 13.23 40.24 13.31 40.24 13.50L40.24 13.82L41.55 13.82L41.65 13.82L41.92 13.82L42.20 13.82L42.66 13.82L42.66 13.50C42.66 13.33 42.57 13.23 42.39 13.22ZM37.59 5.22C37.62 5.14 37.66 5.04 37.69 4.94C37.72 4.84 37.76 4.75 37.79 4.63C37.81 4.75 37.86 4.84 37.88 4.94C37.91 5.04 37.95 5.12 37.98 5.21L39.94 10.04L35.64 10.04ZM59.72 3.92L59.09 3.92L57.88 3.92L57.88 4.19C57.88 4.34 57.97 4.42 58.16 4.44L58.30 4.44C58.37 4.44 58.48 4.45 58.62 4.45C58.76 4.45 58.93 4.47 59.09 4.47L59.09 12.22C59.09 12.35 59.09 12.49 59.11 12.63L52.70 4.05C52.65 3.99 52.63 3.95 52.58 3.93C52.54 3.92 52.50 3.91 52.43 3.91L52.08 3.91L50.89 3.91L50.89 4.19C50.89 4.34 50.99 4.42 51.17 4.44L51.31 4.44C51.38 4.44 51.48 4.45 51.62 4.45C51.76 4.45 51.91 4.47 52.08 4.47L52.08 13.26C51.91 13.26 51.76 13.27 51.62 13.27C51.48 13.27 51.38 13.29 51.31 13.29L51.17 13.29C50.99 13.30 50.89 13.38 50.89 13.54L50.89 13.82L52.08 13.82L52.70 13.82L53.91 13.82L53.91 13.54C53.91 13.38 53.82 13.30 53.63 13.29L53.49 13.29C53.42 13.29 53.30 13.27 53.16 13.27C53.02 13.27 52.86 13.26 52.70 13.26L52.70 5.49C52.70 5.36 52.70 5.22 52.68 5.08L59.12 13.68C59.19 13.78 59.26 13.82 59.37 13.82L59.72 13.82L59.72 4.47C59.89 4.47 60.03 4.45 60.17 4.45C60.31 4.45 60.42 4.44 60.49 4.44L60.62 4.44C60.80 4.42 60.90 4.34 60.90 4.19L60.90 3.92ZM77.94 6.80C77.71 6.19 77.39 5.68 76.97 5.25C76.55 4.82 76.06 4.48 75.49 4.26C74.91 4.03 74.26 3.92 73.56 3.92L70.13 3.92L68.94 3.92L68.94 4.19C68.94 4.34 69.03 4.42 69.22 4.44L69.36 4.44C69.43 4.44 69.52 4.45 69.66 4.45C69.80 4.45 69.96 4.47 70.13 4.47L70.13 13.26C69.96 13.26 69.80 13.27 69.66 13.27C69.52 13.27 69.43 13.29 69.36 13.29L69.22 13.29C69.03 13.30 68.94 13.38 68.94 13.54L68.94 13.82L70.13 13.82L73.56 13.82C74.26 13.82 74.91 13.71 75.49 13.48C76.06 13.26 76.55 12.92 76.97 12.49C77.39 12.05 77.71 11.54 77.94 10.92C78.16 10.30 78.29 9.63 78.29 8.86C78.29 8.11 78.16 7.42 77.94 6.80ZM77.25 10.72C77.06 11.27 76.80 11.72 76.45 12.10C76.10 12.47 75.68 12.75 75.19 12.95C74.70 13.15 74.16 13.24 73.56 13.24L70.84 13.24L70.84 4.49L73.56 4.49C74.16 4.49 74.70 4.59 75.19 4.79C75.68 4.98 76.10 5.26 76.45 5.64C76.80 6.02 77.06 6.47 77.25 7.01C77.45 7.56 77.55 8.18 77.55 8.86C77.55 9.56 77.45 10.18 77.25 10.72ZM105.08 3.92L105.01 3.92L104.45 3.92L104.34 3.92L102.94 3.92L102.94 4.19C102.94 4.34 103.04 4.42 103.22 4.44L103.33 4.44C103.39 4.44 103.46 4.45 103.57 4.45C103.68 4.45 103.81 4.47 103.95 4.47L101.36 8.64C101.29 8.75 101.23 8.85 101.19 8.95C101.15 9.04 101.11 9.16 101.07 9.25C101.02 9.16 100.98 9.04 100.94 8.95C100.90 8.85 100.84 8.75 100.77 8.64L98.17 4.47C98.31 4.47 98.43 4.45 98.55 4.45C98.66 4.45 98.74 4.44 98.80 4.44L98.90 4.44C99.08 4.42 99.18 4.34 99.18 4.19L99.18 3.92L97.78 3.92L97.66 3.92L97.10 3.92L97.03 3.92L96.59 3.92L96.59 4.19C96.59 4.34 96.68 4.42 96.87 4.44C97.10 4.45 97.29 4.47 97.38 4.47L100.70 9.73L100.70 13.26C100.53 13.26 100.38 13.27 100.24 13.27C100.10 13.27 100.00 13.29 99.93 13.29L99.81 13.29C99.62 13.30 99.53 13.38 99.53 13.54L99.53 13.82L100.70 13.82L101.42 13.82L102.59 13.82L102.59 13.54C102.59 13.38 102.51 13.30 102.33 13.29L102.19 13.29C102.12 13.29 102.02 13.27 101.88 13.27C101.74 13.27 101.58 13.26 101.42 13.26L101.42 9.73L104.73 4.47C104.85 4.47 105.01 4.45 105.25 4.44C105.43 4.42 105.53 4.34 105.53 4.19L105.53 3.92ZM122.28 8.86C122.28 8.11 122.15 7.41 121.93 6.79C121.70 6.17 121.38 5.64 120.96 5.19C120.54 4.75 120.05 4.40 119.48 4.16C118.90 3.92 118.24 3.79 117.54 3.79C116.84 3.79 116.21 3.92 115.64 4.16C115.07 4.40 114.56 4.75 114.14 5.19C113.72 5.64 113.40 6.17 113.18 6.79C112.95 7.41 112.83 8.11 112.83 8.86C112.83 9.63 112.95 10.33 113.18 10.95C113.40 11.56 113.72 12.10 114.14 12.54C114.56 12.99 115.07 13.33 115.64 13.57C116.21 13.80 116.84 13.93 117.54 13.93C118.24 13.93 118.90 13.80 119.48 13.57C120.05 13.33 120.54 12.99 120.96 12.54C121.38 12.10 121.70 11.56 121.93 10.95C122.15 10.33 122.28 9.63 122.28 8.86ZM121.52 8.86C121.52 9.56 121.44 10.18 121.24 10.72C121.04 11.27 120.78 11.75 120.43 12.12C120.08 12.50 119.66 12.81 119.17 13.01C118.68 13.20 118.15 13.30 117.54 13.30C116.96 13.30 116.42 13.20 115.93 13.01C115.44 12.81 115.02 12.50 114.67 12.12C114.32 11.75 114.04 11.27 113.85 10.72C113.65 10.18 113.57 9.56 113.57 8.86C113.57 8.18 113.65 7.55 113.85 7.00C114.04 6.45 114.32 5.98 114.67 5.60C115.02 5.22 115.44 4.91 115.93 4.72C116.42 4.52 116.96 4.41 117.54 4.41C118.15 4.41 118.68 4.52 119.17 4.72C119.66 4.91 120.08 5.22 120.43 5.60C120.78 5.98 121.04 6.45 121.24 7.00C121.44 7.55 121.52 8.18 121.52 8.86ZM138.52 3.92L137.80 3.92L136.44 3.92L136.44 4.19C136.44 4.34 136.54 4.42 136.72 4.44L136.89 4.44C136.99 4.44 137.13 4.45 137.30 4.45C137.47 4.45 137.63 4.47 137.80 4.47L137.80 10.04C137.80 10.50 137.73 10.92 137.59 11.33C137.45 11.73 137.26 12.08 136.99 12.38C136.72 12.67 136.42 12.89 136.04 13.06C135.66 13.23 135.24 13.31 134.76 13.31C134.29 13.31 133.85 13.23 133.48 13.06C133.10 12.89 132.78 12.66 132.52 12.36C132.26 12.07 132.08 11.72 131.94 11.33C131.80 10.93 131.73 10.50 131.73 10.04L131.73 4.47C131.89 4.47 132.06 4.45 132.23 4.45C132.40 4.45 132.54 4.44 132.64 4.44L132.80 4.44C132.99 4.42 133.08 4.34 133.08 4.19L133.08 3.92L131.73 3.92L131.01 3.92L129.84 3.92L129.84 4.19C129.84 4.34 129.92 4.42 130.10 4.44L130.24 4.44C130.31 4.44 130.41 4.45 130.55 4.45C130.69 4.45 130.84 4.47 131.01 4.47L131.01 10.04C131.01 10.58 131.10 11.09 131.26 11.56C131.43 12.04 131.68 12.46 132.01 12.81C132.33 13.16 132.73 13.44 133.20 13.64C133.66 13.83 134.19 13.93 134.76 13.93C135.34 13.93 135.86 13.83 136.32 13.64C136.78 13.44 137.19 13.16 137.51 12.81C137.83 12.46 138.08 12.04 138.25 11.56C138.42 11.09 138.52 10.58 138.52 10.04L138.52 4.47C138.68 4.47 138.82 4.45 138.96 4.45C139.10 4.45 139.22 4.44 139.29 4.44L139.41 4.44C139.59 4.42 139.69 4.34 139.69 4.19L139.69 3.92ZM155.71 13.29L155.61 13.29L155.43 13.29C155.34 13.29 155.26 13.27 155.18 13.27L152.21 9.53C152.12 9.42 152.01 9.32 151.90 9.25C152.33 9.21 152.73 9.11 153.08 8.96C153.43 8.81 153.71 8.61 153.96 8.37C154.20 8.13 154.39 7.85 154.52 7.55C154.64 7.24 154.71 6.89 154.71 6.51C154.71 5.66 154.43 5.03 153.87 4.58C153.31 4.14 152.46 3.92 151.31 3.92L148.90 3.92L147.73 3.92L147.73 4.19C147.73 4.34 147.81 4.42 147.99 4.44L148.13 4.44C148.20 4.44 148.30 4.45 148.44 4.45C148.58 4.45 148.74 4.47 148.90 4.47L148.90 13.26C148.74 13.26 148.58 13.27 148.44 13.27C148.30 13.27 148.20 13.29 148.13 13.29L147.99 13.29C147.81 13.30 147.71 13.38 147.71 13.54L147.71 13.82L148.90 13.82L149.62 13.82L150.79 13.82L150.79 13.54C150.79 13.38 150.70 13.30 150.51 13.29L150.37 13.29C150.30 13.29 150.21 13.27 150.07 13.27C149.93 13.27 149.79 13.26 149.62 13.26L149.62 9.34L150.79 9.34C150.99 9.34 151.13 9.35 151.21 9.39C151.30 9.44 151.38 9.52 151.47 9.62L154.64 13.64C154.70 13.71 154.74 13.75 154.80 13.78C154.85 13.80 154.92 13.82 154.99 13.82L155.06 13.82L155.61 13.82L155.97 13.82L155.97 13.54C155.97 13.38 155.89 13.30 155.71 13.29ZM151.21 8.81L149.62 8.81L149.62 4.48L151.31 4.48C152.19 4.48 152.87 4.66 153.33 5.00C153.79 5.33 154.01 5.87 154.01 6.57C154.01 6.92 153.96 7.21 153.83 7.49C153.71 7.77 153.51 7.99 153.27 8.19C153.03 8.39 152.74 8.55 152.39 8.65C152.04 8.75 151.65 8.81 151.21 8.81ZM169.90 9.91C169.76 9.65 169.57 9.39 169.33 9.21C169.09 9.03 168.84 8.88 168.55 8.75C168.25 8.62 167.93 8.51 167.62 8.41C167.31 8.32 167.01 8.20 166.71 8.11C166.42 7.99 166.15 7.87 165.91 7.71C165.68 7.56 165.49 7.38 165.35 7.15C165.21 6.93 165.13 6.65 165.13 6.31C165.13 6.06 165.19 5.82 165.28 5.59C165.38 5.35 165.52 5.15 165.70 4.97C165.89 4.79 166.11 4.65 166.39 4.55C166.67 4.45 166.98 4.40 167.34 4.40C168.01 4.40 168.63 4.51 169.19 4.75C169.23 5.54 169.26 5.99 169.26 6.06C169.27 6.29 169.36 6.41 169.55 6.41L169.89 6.41L169.89 4.38C169.01 4.00 168.17 3.81 167.34 3.81C166.88 3.81 166.47 3.88 166.11 4.02C165.75 4.16 165.45 4.34 165.21 4.58C164.98 4.82 164.78 5.08 164.65 5.39C164.53 5.70 164.47 6.02 164.47 6.36C164.47 6.78 164.54 7.14 164.68 7.42C164.82 7.70 165.02 7.92 165.26 8.12C165.49 8.32 165.75 8.46 166.04 8.58C166.33 8.71 166.66 8.82 166.96 8.92C167.27 9.02 167.57 9.11 167.87 9.21C168.17 9.31 168.43 9.45 168.67 9.60C168.91 9.76 169.09 9.94 169.23 10.16C169.37 10.39 169.44 10.68 169.44 11.03C169.44 11.35 169.39 11.66 169.27 11.94C169.16 12.22 169.01 12.46 168.80 12.67C168.59 12.88 168.32 13.05 168.01 13.16C167.71 13.29 167.36 13.33 166.96 13.33C166.18 13.33 165.52 13.20 164.99 12.95C164.98 12.75 164.98 12.54 164.96 12.32C164.95 12.10 164.95 11.91 164.93 11.76C164.92 11.61 164.92 11.52 164.92 11.51C164.91 11.28 164.81 11.17 164.61 11.17L164.28 11.17L164.28 13.02L164.28 13.20L164.28 13.38C165.13 13.75 166.01 13.93 166.94 13.93C167.44 13.93 167.89 13.85 168.28 13.69C168.67 13.54 169.01 13.31 169.27 13.05C169.54 12.78 169.76 12.46 169.90 12.10C170.04 11.73 170.11 11.34 170.11 10.92C170.11 10.51 170.04 10.18 169.90 9.91ZM179.56 3.92L178.37 3.92L178.37 4.19C178.37 4.34 178.47 4.42 178.65 4.44L178.79 4.44C178.86 4.44 178.96 4.45 179.10 4.45C179.24 4.45 179.40 4.47 179.56 4.47L179.56 13.26C179.40 13.26 179.24 13.27 179.10 13.27C178.96 13.27 178.86 13.29 178.79 13.29L178.65 13.29C178.47 13.30 178.39 13.38 178.39 13.54L178.39 13.82L179.56 13.82L185.50 13.82L185.50 13.22L185.50 11.76L185.15 11.76C184.95 11.76 184.87 11.89 184.86 12.11C184.86 12.14 184.84 12.19 184.84 12.29C184.84 12.39 184.84 12.53 184.83 12.74C184.81 12.95 184.80 13.09 184.80 13.22L180.28 13.22L180.28 9.09L184.23 9.09L184.23 8.51L180.28 8.51L180.28 4.51L184.80 4.51C184.83 5.12 184.86 5.50 184.86 5.63C184.87 5.85 184.95 5.96 185.15 5.96L185.50 5.96L185.50 4.51L185.50 3.92ZM200.45 11.97C200.26 11.97 200.17 12.08 200.16 12.31C200.16 12.32 200.16 12.38 200.14 12.43C200.13 12.49 200.13 12.59 200.12 12.71C200.10 12.84 200.09 13.01 200.07 13.20L195.99 13.20L195.99 4.47C196.15 4.47 196.29 4.45 196.43 4.45C196.57 4.45 196.69 4.44 196.76 4.44L196.88 4.44C197.06 4.42 197.16 4.34 197.16 4.19L197.16 3.92L195.99 3.92L195.27 3.92L194.08 3.92L194.08 4.19C194.08 4.34 194.18 4.42 194.36 4.44L194.50 4.44C194.57 4.44 194.67 4.45 194.81 4.45C194.95 4.45 195.10 4.47 195.27 4.47L195.27 13.26C195.10 13.26 194.95 13.27 194.81 13.27C194.67 13.27 194.57 13.29 194.50 13.29L194.36 13.29C194.18 13.30 194.08 13.38 194.08 13.54L194.08 13.82L195.27 13.82L200.55 13.82L200.68 13.82L200.80 13.82L200.80 13.55L200.80 12.99L200.80 11.97L200.52 11.97ZM216.36 3.92L216.01 3.92L210.42 3.92L209.23 3.92L209.23 4.19C209.23 4.34 209.33 4.42 209.51 4.44L209.65 4.44C209.72 4.44 209.82 4.45 209.96 4.45C210.10 4.45 210.25 4.47 210.42 4.47L210.42 13.26C210.25 13.26 210.10 13.27 209.96 13.27C209.82 13.27 209.72 13.29 209.65 13.29L209.51 13.29C209.33 13.30 209.23 13.38 209.23 13.54L209.23 13.82L210.42 13.82L211.13 13.82L212.31 13.82L212.31 13.54C212.31 13.38 212.23 13.30 212.04 13.29L211.90 13.29C211.83 13.29 211.74 13.27 211.60 13.27C211.46 13.27 211.30 13.26 211.13 13.26L211.13 9.27L214.83 9.27L214.83 8.67L211.13 8.67L211.13 4.51L215.74 4.51C215.77 5.18 215.80 5.56 215.80 5.63C215.81 5.85 215.91 5.96 216.10 5.96L216.44 5.96L216.44 3.92Z"></path></g></svg>